  0
SECTION
  2
HEADER
  9
$ACADVER
  1
AC1006
  9
$EXTMIN
 10
0.000000
 20
0.000000
 30
0.000000
  9
$EXTMAX
 10
1536.000000
 20
1024.000000
 30
0.000000
  0
ENDSEC
  0
SECTION
  2
ENTITIES
  0
POLYLINE
  8
0
 66
1
 70
1
  0
VERTEX
  8
0
 10
378.000000
 20
836.418694
 42
0.008622
  0
VERTEX
  8
0
 10
339.802405
 20
833.229402
 42
0.016216
  0
VERTEX
  8
0
 10
309.119183
 20
829.125094
 42
0.018293
  0
VERTEX
  8
0
 10
281.382885
 20
823.445329
 42
0.015417
  0
VERTEX
  8
0
 10
252.487822
 20
815.467112
 42
0.014511
  0
VERTEX
  8
0
 10
235.063672
 20
809.513514
 42
0.009239
  0
VERTEX
  8
0
 10
215.137384
 20
801.629773
 42
0.002629
  0
VERTEX
  8
0
 10
195.474121
 20
793.305115
 42
0.299790
  0
VERTEX
  8
0
 10
194.000000
 20
791.067491
 42
0.139000
  0
VERTEX
  8
0
 10
194.172271
 20
790.459781
 42
0.014668
  0
VERTEX
  8
0
 10
194.990852
 20
789.215236
 42
0.017240
  0
VERTEX
  8
0
 10
196.081280
 20
787.767690
 42
0.013019
  0
VERTEX
  8
0
 10
197.373114
 20
786.252881
 42
-0.052821
  0
VERTEX
  8
0
 10
207.796316
 20
771.854979
 42
-0.018694
  0
VERTEX
  8
0
 10
219.647307
 20
749.294745
 42
-0.018130
  0
VERTEX
  8
0
 10
231.043919
 20
723.076682
 42
-0.018990
  0
VERTEX
  8
0
 10
240.320061
 20
696.500000
 42
-0.019982
  0
VERTEX
  8
0
 10
252.172199
 20
651.563012
 42
-0.021941
  0
VERTEX
  8
0
 10
259.972503
 20
607.198357
 42
-0.021201
  0
VERTEX
  8
0
 10
264.038524
 20
560.993237
 42
-0.016445
  0
VERTEX
  8
0
 10
264.669195
 20
510.500000
 42
-0.009212
  0
VERTEX
  8
0
 10
263.380356
 20
477.317559
 42
-0.008762
  0
VERTEX
  8
0
 10
260.858050
 20
443.645597
 42
-0.007780
  0
VERTEX
  8
0
 10
256.845837
 20
406.589006
 42
-0.004758
  0
VERTEX
  8
0
 10
251.017273
 20
363.000000
 42
0.003126
  0
VERTEX
  8
0
 10
245.065374
 20
319.568386
 42
0.009423
  0
VERTEX
  8
0
 10
241.751531
 20
289.862427
 42
0.013579
  0
VERTEX
  8
0
 10
240.284491
 20
267.356613
 42
0.021396
  0
VERTEX
  8
0
 10
240.378365
 20
248.000000
 42
0.006478
  0
VERTEX
  8
0
 10
241.010569
 20
237.578924
 42
0.004631
  0
VERTEX
  8
0
 10
241.976817
 20
225.937365
 42
0.001075
  0
VERTEX
  8
0
 10
243.070510
 20
214.364139
 42
0.154107
  0
VERTEX
  8
0
 10
243.598745
 20
213.122298
 42
0.395080
  0
VERTEX
  8
0
 10
243.864803
 20
213.092834
 42
0.004828
  0
VERTEX
  8
0
 10
245.361191
 20
214.234832
 42
0.011059
  0
VERTEX
  8
0
 10
247.118791
 20
215.666772
 42
0.006636
  0
VERTEX
  8
0
 10
249.144530
 20
217.440036
 42
-0.033712
  0
VERTEX
  8
0
 10
269.257122
 20
233.208436
 42
-0.024443
  0
VERTEX
  8
0
 10
293.547194
 20
248.055376
 42
-0.022175
  0
VERTEX
  8
0
 10
321.747814
 20
261.866862
 42
-0.016985
  0
VERTEX
  8
0
 10
353.667541
 20
274.509217
 42
-0.008872
  0
VERTEX
  8
0
 10
370.233784
 20
280.098581
 42
-0.013842
  0
VERTEX
  8
0
 10
384.705186
 20
284.259514
 42
-0.011958
  0
VERTEX
  8
0
 10
400.820210
 20
288.005190
 42
-0.004812
  0
VERTEX
  8
0
 10
423.000000
 20
292.382222
 42
-0.027056
  0
VERTEX
  8
0
 10
440.826053
 20
294.733030
 42
-0.013163
  0
VERTEX
  8
0
 10
463.766154
 20
295.896991
 42
-0.013143
  0
VERTEX
  8
0
 10
487.255875
 20
295.852064
 42
-0.021912
  0
VERTEX
  8
0
 10
506.978849
 20
294.429271
 42
-0.024520
  0
VERTEX
  8
0
 10
529.380855
 20
290.702189
 42
-0.020569
  0
VERTEX
  8
0
 10
552.685654
 20
284.626581
 42
-0.020355
  0
VERTEX
  8
0
 10
575.690186
 20
276.570151
 42
-0.022482
  0
VERTEX
  8
0
 10
597.195401
 20
266.901362
 42
0.011291
  0
VERTEX
  8
0
 10
606.774014
 20
262.334484
 42
0.002980
  0
VERTEX
  8
0
 10
622.293087
 20
255.471788
 42
0.002699
  0
VERTEX
  8
0
 10
637.771647
 20
248.836151
 42
0.015946
  0
VERTEX
  8
0
 10
646.000860
 20
245.665976
 42
0.014674
  0
VERTEX
  8
0
 10
671.672323
 20
237.542294
 42
0.022120
  0
VERTEX
  8
0
 10
694.499322
 20
232.127643
 42
0.022888
  0
VERTEX
  8
0
 10
717.121501
 20
228.872758
 42
0.017388
  0
VERTEX
  8
0
 10
742.130045
 20
227.311224
 42
0.008208
  0
VERTEX
  8
0
 10
757.319681
 20
227.141524
 42
0.014112
  0
VERTEX
  8
0
 10
769.967230
 20
227.564946
 42
0.015034
  0
VERTEX
  8
0
 10
781.997715
 20
228.671898
 42
0.011089
  0
VERTEX
  8
0
 10
795.235770
 20
230.591418
 42
0.020061
  0
VERTEX
  8
0
 10
805.060239
 20
232.647353
 42
0.009233
  0
VERTEX
  8
0
 10
817.678576
 20
236.069991
 42
0.009183
  0
VERTEX
  8
0
 10
830.051743
 20
239.920520
 42
0.022194
  0
VERTEX
  8
0
 10
839.000000
 20
243.334174
 42
0.007673
  0
VERTEX
  8
0
 10
841.008081
 20
244.240998
 42
0.132511
  0
VERTEX
  8
0
 10
841.552431
 20
244.702302
 42
0.444273
  0
VERTEX
  8
0
 10
841.461129
 20
245.089003
 42
0.046481
  0
VERTEX
  8
0
 10
840.500000
 20
245.506601
 42
-0.035689
  0
VERTEX
  8
0
 10
826.899974
 20
251.070444
 42
-0.029041
  0
VERTEX
  8
0
 10
813.218872
 20
258.862792
 42
-0.029951
  0
VERTEX
  8
0
 10
801.273312
 20
267.677085
 42
-0.057464
  0
VERTEX
  8
0
 10
793.077067
 20
276.293407
 42
-0.053923
  0
VERTEX
  8
0
 10
787.997187
 20
284.808920
 42
-0.061566
  0
VERTEX
  8
0
 10
785.130279
 20
293.847204
 42
-0.063737
  0
VERTEX
  8
0
 10
784.607031
 20
303.036488
 42
-0.064943
  0
VERTEX
  8
0
 10
786.425193
 20
312.000000
 42
-0.076868
  0
VERTEX
  8
0
 10
789.901308
 20
318.624134
 42
-0.045809
  0
VERTEX
  8
0
 10
795.840440
 20
325.284051
 42
-0.041133
  0
VERTEX
  8
0
 10
803.708966
 20
331.502220
 42
-0.033923
  0
VERTEX
  8
0
 10
813.000000
 20
336.806286
 42
-0.013563
  0
VERTEX
  8
0
 10
818.050676
 20
339.084762
 42
-0.006423
  0
VERTEX
  8
0
 10
824.675000
 20
341.759964
 42
-0.006361
  0
VERTEX
  8
0
 10
831.681328
 20
344.383173
 42
-0.008947
  0
VERTEX
  8
0
 10
838.000000
 20
346.530791
 42
0.002927
  0
VERTEX
  8
0
 10
877.324184
 20
359.370417
 42
0.009523
  0
VERTEX
  8
0
 10
903.162369
 20
368.524678
 42
0.013376
  0
VERTEX
  8
0
 10
923.429214
 20
376.767689
 42
0.012995
  0
VERTEX
  8
0
 10
943.424939
 20
386.157575
 42
0.010815
  0
VERTEX
  8
0
 10
959.362284
 20
394.589847
 42
0.012887
  0
VERTEX
  8
0
 10
974.000071
 20
403.246153
 42
0.012549
  0
VERTEX
  8
0
 10
988.491986
 20
412.842952
 42
0.009357
  0
VERTEX
  8
0
 10
1004.000000
 20
424.119846
 42
0.015436
  0
VERTEX
  8
0
 10
1019.244151
 20
436.404656
 42
0.013828
  0
VERTEX
  8
0
 10
1034.286149
 20
450.052273
 42
0.011336
  0
VERTEX
  8
0
 10
1051.036832
 20
466.862027
 42
0.005492
  0
VERTEX
  8
0
 10
1071.726181
 20
489.071253
 42
-0.007392
  0
VERTEX
  8
0
 10
1082.815499
 20
500.884865
 42
-0.011352
  0
VERTEX
  8
0
 10
1092.794418
 20
510.747242
 42
-0.012786
  0
VERTEX
  8
0
 10
1102.190856
 20
519.177460
 42
-0.015154
  0
VERTEX
  8
0
 10
1111.500000
 20
526.634426
 42
-0.029647
  0
VERTEX
  8
0
 10
1135.034473
 20
542.248985
 42
-0.041064
  0
VERTEX
  8
0
 10
1157.890092
 20
553.132985
 42
-0.034897
  0
VERTEX
  8
0
 10
1184.910877
 20
561.272445
 42
-0.014873
  0
VERTEX
  8
0
 10
1222.000000
 20
568.523727
 42
0.006595
  0
VERTEX
  8
0
 10
1247.726109
 20
573.112665
 42
0.012633
  0
VERTEX
  8
0
 10
1268.215261
 20
577.586437
 42
0.014829
  0
VERTEX
  8
0
 10
1286.057765
 20
582.522451
 42
0.015018
  0
VERTEX
  8
0
 10
1303.500000
 20
588.488723
 42
0.027342
  0
VERTEX
  8
0
 10
1322.105241
 20
596.670166
 42
0.026721
  0
VERTEX
  8
0
 10
1339.854910
 20
606.889317
 42
0.027280
  0
VERTEX
  8
0
 10
1356.038166
 20
618.697796
 42
0.031959
  0
VERTEX
  8
0
 10
1369.955598
 20
631.632222
 42
0.012832
  0
VERTEX
  8
0
 10
1376.153245
 20
638.523803
 42
0.009386
  0
VERTEX
  8
0
 10
1382.687891
 20
646.473732
 42
0.002584
  0
VERTEX
  8
0
 10
1388.902870
 20
654.414912
 42
0.377627
  0
VERTEX
  8
0
 10
1388.834196
 20
655.499138
 42
0.255348
  0
VERTEX
  8
0
 10
1388.512842
 20
655.593422
 42
0.002003
  0
VERTEX
  8
0
 10
1385.797154
 20
654.990049
 42
0.006609
  0
VERTEX
  8
0
 10
1382.654454
 20
654.234777
 42
0.004120
  0
VERTEX
  8
0
 10
1378.990712
 20
653.270686
 42
-0.017187
  0
VERTEX
  8
0
 10
1372.783417
 20
651.809556
 42
-0.028667
  0
VERTEX
  8
0
 10
1367.468684
 20
651.063342
 42
-0.016926
  0
VERTEX
  8
0
 10
1360.464270
 20
650.724579
 42
-0.002590
  0
VERTEX
  8
0
 10
1346.500000
 20
650.594731
 42
-0.008358
  0
VERTEX
  8
0
 10
1328.610943
 20
650.820074
 42
-0.026205
  0
VERTEX
  8
0
 10
1316.633075
 20
651.800951
 42
-0.017782
  0
VERTEX
  8
0
 10
1302.655506
 20
654.195508
 42
-0.002300
  0
VERTEX
  8
0
 10
1273.000000
 20
660.511046
 42
-0.006800
  0
VERTEX
  8
0
 10
1268.285505
 20
661.605116
 42
-0.000167
  0
VERTEX
  8
0
 10
1246.671875
 20
666.939293
 42
-0.000362
  0
VERTEX
  8
0
 10
1221.326525
 20
673.222852
 42
-0.000246
  0
VERTEX
  8
0
 10
1192.500000
 20
680.406645
 42
0.000767
  0
VERTEX
  8
0
 10
1104.264961
 20
702.297802
 42
0.000756
  0
VERTEX
  8
0
 10
1015.506674
 20
724.032000
 42
0.000792
  0
VERTEX
  8
0
 10
935.003203
 20
743.480874
 42
0.001737
  0
VERTEX
  8
0
 10
873.311647
 20
758.055053
 42
-0.000517
  0
VERTEX
  8
0
 10
863.241409
 20
760.408138
 42
-0.000629
  0
VERTEX
  8
0
 10
853.815202
 20
762.633526
 42
-0.000528
  0
VERTEX
  8
0
 10
845.889102
 20
764.524128
 42
-0.004409
  0
VERTEX
  8
0
 10
842.311647
 20
765.414875
 42
0.009240
  0
VERTEX
  8
0
 10
813.357248
 20
772.327839
 42
0.001092
  0
VERTEX
  8
0
 10
748.703787
 20
786.358763
 42
0.001084
  0
VERTEX
  8
0
 10
683.965605
 20
800.113367
 42
0.009382
  0
VERTEX
  8
0
 10
655.000000
 20
805.636618
 42
-0.005254
  0
VERTEX
  8
0
 10
653.507405
 20
805.908480
 42
-0.000744
  0
VERTEX
  8
0
 10
650.443750
 20
806.504545
 42
-0.000848
  0
VERTEX
  8
0
 10
646.820524
 20
807.221455
 42
-0.000722
  0
VERTEX
  8
0
 10
643.000000
 20
807.989872
 42
0.002223
  0
VERTEX
  8
0
 10
636.440091
 20
809.288781
 42
0.001366
  0
VERTEX
  8
0
 10
628.703769
 20
810.763004
 42
0.001147
  0
VERTEX
  8
0
 10
619.523389
 20
812.464624
 42
0.000668
  0
VERTEX
  8
0
 10
608.500000
 20
814.466491
 42
0.005682
  0
VERTEX
  8
0
 10
569.588965
 20
821.023541
 42
0.005727
  0
VERTEX
  8
0
 10
530.642307
 20
826.676044
 42
0.005918
  0
VERTEX
  8
0
 10
492.994044
 20
831.247667
 42
0.007430
  0
VERTEX
  8
0
 10
458.000000
 20
834.551900
 42
0.010709
  0
VERTEX
  8
0
 10
441.086784
 20
835.531703
 42
0.003279
  0
VERTEX
  8
0
 10
415.497644
 20
836.296782
 42
0.002750
  0
VERTEX
  8
0
 10
390.230988
 20
836.747342
 42
0.019599
  0
SEQEND
  0
POLYLINE
  8
0
 66
1
 70
1
  0
VERTEX
  8
0
 10
458.500000
 20
820.031410
 42
-0.017699
  0
VERTEX
  8
0
 10
543.677040
 20
810.156065
 42
-0.008984
  0
VERTEX
  8
0
 10
650.047568
 20
792.029726
 42
-0.007555
  0
VERTEX
  8
0
 10
777.635230
 20
765.918776
 42
-0.004477
  0
VERTEX
  8
0
 10
929.000000
 20
731.127323
 42
-0.000940
  0
VERTEX
  8
0
 10
983.442380
 20
717.991017
 42
-0.001186
  0
VERTEX
  8
0
 10
1033.761808
 20
705.622819
 42
-0.000664
  0
VERTEX
  8
0
 10
1102.555522
 20
688.443566
 42
-0.000104
  0
VERTEX
  8
0
 10
1238.000000
 20
654.399100
 42
0.004077
  0
VERTEX
  8
0
 10
1276.337832
 20
645.085975
 42
0.009366
  0
VERTEX
  8
0
 10
1305.376058
 20
638.853537
 42
0.011943
  0
VERTEX
  8
0
 10
1327.402537
 20
635.099611
 42
0.036246
  0
VERTEX
  8
0
 10
1342.551216
 20
634.000000
 42
-0.008850
  0
VERTEX
  8
0
 10
1344.640383
 20
633.963017
 42
-0.014669
  0
VERTEX
  8
0
 10
1346.399420
 20
633.848984
 42
-0.008336
  0
VERTEX
  8
0
 10
1347.819431
 20
633.691081
 42
-0.377368
  0
VERTEX
  8
0
 10
1348.000000
 20
633.485904
 42
-0.236847
  0
VERTEX
  8
0
 10
1346.870001
 20
631.234214
 42
-0.005158
  0
VERTEX
  8
0
 10
1336.667422
 20
623.791678
 42
-0.012394
  0
VERTEX
  8
0
 10
1326.209766
 20
616.711681
 42
-0.025722
  0
VERTEX
  8
0
 10
1317.654258
 20
611.825470
 42
-0.019157
  0
VERTEX
  8
0
 10
1308.311794
 20
607.550195
 42
-0.011846
  0
VERTEX
  8
0
 10
1297.039463
 20
603.214714
 42
-0.011455
  0
VERTEX
  8
0
 10
1284.974542
 20
599.208873
 42
-0.012838
  0
VERTEX
  8
0
 10
1273.186137
 20
595.921089
 42
-0.011317
  0
VERTEX
  8
0
 10
1260.684846
 20
593.077191
 42
-0.005124
  0
VERTEX
  8
0
 10
1244.195261
 20
589.892230
 42
-0.005073
  0
VERTEX
  8
0
 10
1227.850084
 20
587.079644
 42
-0.013139
  0
VERTEX
  8
0
 10
1216.000000
 20
585.482364
 42
0.019079
  0
VERTEX
  8
0
 10
1201.261622
 20
583.317254
 42
0.009781
  0
VERTEX
  8
0
 10
1182.965564
 20
579.540348
 42
0.009780
  0
VERTEX
  8
0
 10
1164.698234
 20
575.017854
 42
0.017789
  0
VERTEX
  8
0
 10
1150.000000
 20
570.506144
 42
0.017957
  0
VERTEX
  8
0
 10
1139.680232
 20
566.511667
 42
0.012855
  0
VERTEX
  8
0
 10
1128.434903
 20
561.341658
 42
0.012890
  0
VERTEX
  8
0
 10
1117.522012
 20
555.626717
 42
0.018646
  0
VERTEX
  8
0
 10
1108.217035
 20
549.979452
 42
0.021749
  0
VERTEX
  8
0
 10
1098.829474
 20
543.188442
 42
0.017026
  0
VERTEX
  8
0
 10
1089.242301
 20
535.050782
 42
0.012429
  0
VERTEX
  8
0
 10
1077.745850
 20
524.064588
 42
0.004532
  0
VERTEX
  8
0
 10
1062.000000
 20
507.961091
 42
-0.008979
  0
VERTEX
  8
0
 10
1023.148184
 20
468.927441
 42
-0.022840
  0
VERTEX
  8
0
 10
993.215206
 20
442.456136
 42
-0.028474
  0
VERTEX
  8
0
 10
965.243890
 20
422.423847
 42
-0.023627
  0
VERTEX
  8
0
 10
933.415285
 20
404.313101
 42
-0.011227
  0
VERTEX
  8
0
 10
911.914266
 20
393.989939
 42
-0.016131
  0
VERTEX
  8
0
 10
892.400888
 20
385.902420
 42
-0.013685
  0
VERTEX
  8
0
 10
870.159827
 20
378.202633
 42
-0.005564
  0
VERTEX
  8
0
 10
839.500000
 20
368.893294
 42
0.009479
  0
VERTEX
  8
0
 10
814.569976
 20
361.110019
 42
0.028032
  0
VERTEX
  8
0
 10
797.903692
 20
354.499201
 42
0.038860
  0
VERTEX
  8
0
 10
785.416756
 20
347.492348
 42
0.040779
  0
VERTEX
  8
0
 10
774.378277
 20
338.737253
 42
0.040306
  0
VERTEX
  8
0
 10
768.319591
 20
332.077420
 42
0.053180
  0
VERTEX
  8
0
 10
764.023599
 20
325.091479
 42
0.054384
  0
VERTEX
  8
0
 10
761.363859
 20
317.485922
 42
0.045026
  0
VERTEX
  8
0
 10
760.184767
 20
308.981393
 42
0.012368
  0
VERTEX
  8
0
 10
760.074923
 20
304.214545
 42
0.026185
  0
VERTEX
  8
0
 10
760.274489
 20
300.526138
 42
0.028732
  0
VERTEX
  8
0
 10
760.840843
 20
297.100819
 42
0.018396
  0
VERTEX
  8
0
 10
761.870377
 20
293.200844
 42
0.069951
  0
VERTEX
  8
0
 10
767.321676
 20
281.456178
 42
0.043332
  0
VERTEX
  8
0
 10
776.672691
 20
269.428476
 42
0.041034
  0
VERTEX
  8
0
 10
788.691087
 20
258.425444
 42
0.042951
  0
VERTEX
  8
0
 10
802.171053
 20
249.719448
 42
0.000000
  0
VERTEX
  8
0
 10
806.842105
 20
247.242337
 42
0.000000
  0
VERTEX
  8
0
 10
798.671053
 20
245.644197
 42
-0.034512
  0
VERTEX
  8
0
 10
776.071843
 20
242.823966
 42
-0.024544
  0
VERTEX
  8
0
 10
750.537026
 20
242.668774
 42
-0.023529
  0
VERTEX
  8
0
 10
723.785931
 20
245.084236
 42
-0.023843
  0
VERTEX
  8
0
 10
697.500000
 20
249.997298
 42
-0.016105
  0
VERTEX
  8
0
 10
678.797133
 20
255.066120
 42
-0.015001
  0
VERTEX
  8
0
 10
660.005530
 20
261.437006
 42
-0.013812
  0
VERTEX
  8
0
 10
640.219752
 20
269.442865
 42
-0.009835
  0
VERTEX
  8
0
 10
618.500000
 20
279.450856
 42
0.007105
  0
VERTEX
  8
0
 10
593.462921
 20
291.153565
 42
0.016358
  0
VERTEX
  8
0
 10
574.240126
 20
299.062348
 42
0.019819
  0
VERTEX
  8
0
 10
556.995348
 20
304.738313
 42
0.017131
  0
VERTEX
  8
0
 10
538.500000
 20
309.344529
 42
0.040123
  0
VERTEX
  8
0
 10
491.212472
 20
315.508530
 42
0.037624
  0
VERTEX
  8
0
 10
442.502328
 20
314.251862
 42
0.035911
  0
VERTEX
  8
0
 10
392.411365
 20
305.509182
 42
0.030183
  0
VERTEX
  8
0
 10
341.002655
 20
289.328248
 42
0.016391
  0
VERTEX
  8
0
 10
316.204712
 20
278.900452
 42
0.015211
  0
VERTEX
  8
0
 10
291.506468
 20
266.624915
 42
0.015453
  0
VERTEX
  8
0
 10
270.183894
 20
254.343137
 42
0.047165
  0
VERTEX
  8
0
 10
256.879089
 20
244.275961
 42
0.000000
  0
VERTEX
  8
0
 10
254.258178
 20
241.873168
 42
0.000000
  0
VERTEX
  8
0
 10
253.735318
 20
247.686584
 42
-0.030520
  0
VERTEX
  8
0
 10
253.496212
 20
256.021775
 42
-0.005438
  0
VERTEX
  8
0
 10
254.170028
 20
271.602939
 42
-0.006297
  0
VERTEX
  8
0
 10
255.256894
 20
287.876250
 42
-0.013163
  0
VERTEX
  8
0
 10
256.595049
 20
300.500000
 42
-0.006913
  0
VERTEX
  8
0
 10
257.551852
 20
307.017715
 42
-0.001665
  0
VERTEX
  8
0
 10
259.322105
 20
317.787500
 42
-0.001709
  0
VERTEX
  8
0
 10
261.437271
 20
330.134375
 42
-0.001696
  0
VERTEX
  8
0
 10
263.642431
 20
342.500000
 42
0.000126
  0
VERTEX
  8
0
 10
270.282398
 20
379.069666
 42
0.000980
  0
VERTEX
  8
0
 10
273.343741
 20
396.144830
 42
0.002078
  0
VERTEX
  8
0
 10
275.271033
 20
407.286479
 42
0.002709
  0
VERTEX
  8
0
 10
276.937241
 20
417.500000
 42
0.016296
  0
VERTEX
  8
0
 10
282.527752
 20
462.460611
 42
0.015784
  0
VERTEX
  8
0
 10
285.253217
 20
508.171128
 42
0.016077
  0
VERTEX
  8
0
 10
285.066439
 20
553.047478
 42
0.018830
  0
VERTEX
  8
0
 10
281.920547
 20
595.500000
 42
0.021545
  0
VERTEX
  8
0
 10
272.837861
 20
653.739487
 42
0.025505
  0
VERTEX
  8
0
 10
259.120114
 20
707.734775
 42
0.027758
  0
VERTEX
  8
0
 10
242.460386
 20
752.635198
 42
0.073325
  0
VERTEX
  8
0
 10
224.377366
 20
781.659492
 42
-0.004569
  0
VERTEX
  8
0
 10
222.699736
 20
783.673899
 42
-0.006989
  0
VERTEX
  8
0
 10
221.285851
 20
785.453709
 42
-0.002947
  0
VERTEX
  8
0
 10
220.113593
 20
786.991115
 42
-0.162804
  0
VERTEX
  8
0
 10
220.000000
 20
787.330731
 42
-0.310865
  0
VERTEX
  8
0
 10
220.611798
 20
788.219662
 42
-0.000962
  0
VERTEX
  8
0
 10
234.135753
 20
793.361045
 42
-0.005611
  0
VERTEX
  8
0
 10
247.090367
 20
798.092020
 42
-0.011071
  0
VERTEX
  8
0
 10
257.500000
 20
801.504552
 42
-0.014941
  0
VERTEX
  8
0
 10
283.123299
 20
808.451792
 42
-0.013965
  0
VERTEX
  8
0
 10
309.697258
 20
814.031353
 42
-0.013706
  0
VERTEX
  8
0
 10
337.047970
 20
818.210288
 42
-0.013103
  0
VERTEX
  8
0
 10
365.000000
 20
820.958471
 42
-0.017318
  0
VERTEX
  8
0
 10
380.991428
 20
821.553084
 42
-0.003112
  0
VERTEX
  8
0
 10
410.807380
 20
821.443045
 42
-0.003301
  0
VERTEX
  8
0
 10
440.728097
 20
820.948800
 42
-0.014229
  0
SEQEND
  0
POLYLINE
  8
0
 66
1
 70
1
  0
VERTEX
  8
0
 10
377.000000
 20
811.406061
 42
0.012206
  0
VERTEX
  8
0
 10
342.618553
 20
808.647829
 42
0.016735
  0
VERTEX
  8
0
 10
311.879237
 20
804.380825
 42
0.017466
  0
VERTEX
  8
0
 10
282.561964
 20
798.244576
 42
0.015441
  0
VERTEX
  8
0
 10
252.500000
 20
789.855575
 42
0.002705
  0
VERTEX
  8
0
 10
240.059674
 20
785.892214
 42
0.113739
  0
VERTEX
  8
0
 10
237.675498
 20
784.461971
 42
0.350366
  0
VERTEX
  8
0
 10
237.433942
 20
782.613627
 42
0.027529
  0
VERTEX
  8
0
 10
240.430168
 20
778.225540
 42
-0.080341
  0
VERTEX
  8
0
 10
264.753938
 20
733.037724
 42
-0.030572
  0
VERTEX
  8
0
 10
284.059402
 20
663.911808
 42
-0.029561
  0
VERTEX
  8
0
 10
296.077875
 20
585.511180
 42
-0.033797
  0
VERTEX
  8
0
 10
298.006838
 20
509.695780
 42
-0.010314
  0
VERTEX
  8
0
 10
295.830594
 20
475.065286
 42
-0.014382
  0
VERTEX
  8
0
 10
292.356425
 20
444.217329
 42
-0.010668
  0
VERTEX
  8
0
 10
286.338613
 20
407.452978
 42
-0.003091
  0
VERTEX
  8
0
 10
275.495421
 20
351.000000
 42
0.001989
  0
VERTEX
  8
0
 10
269.677310
 20
321.065508
 42
0.005097
  0
VERTEX
  8
0
 10
265.773808
 20
299.342608
 42
0.006919
  0
VERTEX
  8
0
 10
263.150215
 20
282.415145
 42
0.011431
  0
VERTEX
  8
0
 10
261.460459
 20
268.047111
 42
0.000000
  0
VERTEX
  8
0
 10
260.756267
 20
260.594223
 42
0.000000
  0
VERTEX
  8
0
 10
263.128133
 20
262.279486
 42
-0.023845
  0
VERTEX
  8
0
 10
275.762138
 20
270.378762
 42
-0.011067
  0
VERTEX
  8
0
 10
292.865162
 20
279.727928
 42
-0.010914
  0
VERTEX
  8
0
 10
311.347980
 20
288.800173
 42
-0.014638
  0
VERTEX
  8
0
 10
328.500000
 20
296.157251
 42
-0.020659
  0
VERTEX
  8
0
 10
369.663101
 20
310.469055
 42
-0.025343
  0
VERTEX
  8
0
 10
409.172635
 20
320.247638
 42
-0.026697
  0
VERTEX
  8
0
 10
447.596275
 20
325.606252
 42
-0.028587
  0
VERTEX
  8
0
 10
485.500000
 20
326.668894
 42
-0.012353
  0
VERTEX
  8
0
 10
506.287615
 20
325.548696
 42
-0.017021
  0
VERTEX
  8
0
 10
524.868356
 20
323.447982
 42
-0.017771
  0
VERTEX
  8
0
 10
542.614256
 20
320.179171
 42
-0.015641
  0
VERTEX
  8
0
 10
560.864068
 20
315.539125
 42
-0.014121
  0
VERTEX
  8
0
 10
573.941643
 20
311.371709
 42
-0.012966
  0
VERTEX
  8
0
 10
587.145059
 20
306.361687
 42
-0.010478
  0
VERTEX
  8
0
 10
602.390494
 20
299.743691
 42
-0.004804
  0
VERTEX
  8
0
 10
622.000000
 20
290.509208
 42
0.006692
  0
VERTEX
  8
0
 10
645.512219
 20
279.545121
 42
0.013844
  0
VERTEX
  8
0
 10
664.215670
 20
271.741518
 42
0.016121
  0
VERTEX
  8
0
 10
681.355926
 20
265.767995
 42
0.013713
  0
VERTEX
  8
0
 10
699.791063
 20
260.552963
 42
0.019759
  0
VERTEX
  8
0
 10
718.064969
 20
256.681977
 42
0.016149
  0
VERTEX
  8
0
 10
737.859983
 20
253.954225
 42
0.016420
  0
VERTEX
  8
0
 10
757.307170
 20
252.555401
 42
0.023889
  0
VERTEX
  8
0
 10
774.499281
 20
252.706691
 42
0.000000
  0
VERTEX
  8
0
 10
784.811367
 20
253.290658
 42
0.000000
  0
VERTEX
  8
0
 10
777.655683
 20
257.970507
 42
-0.035181
  0
VERTEX
  8
0
 10
771.159780
 20
262.903790
 42
-0.020586
  0
VERTEX
  8
0
 10
764.081585
 20
269.645004
 42
-0.020559
  0
VERTEX
  8
0
 10
757.772097
 20
276.730941
 42
-0.047023
  0
VERTEX
  8
0
 10
753.781689
 20
282.659778
 42
-0.035871
  0
VERTEX
  8
0
 10
751.236909
 20
288.256916
 42
-0.032907
  0
VERTEX
  8
0
 10
749.431965
 20
294.322684
 42
-0.031001
  0
VERTEX
  8
0
 10
748.357665
 20
300.918946
 42
-0.024871
  0
VERTEX
  8
0
 10
748.000000
 20
308.104764
 42
-0.115443
  0
VERTEX
  8
0
 10
753.372981
 20
331.065764
 42
-0.103138
  0
VERTEX
  8
0
 10
768.510244
 20
350.358516
 42
-0.075917
  0
VERTEX
  8
0
 10
794.489418
 20
366.230053
 42
-0.034564
  0
VERTEX
  8
0
 10
832.266089
 20
379.075724
 42
0.022417
  0
VERTEX
  8
0
 10
880.886049
 20
394.302389
 42
0.028907
  0
VERTEX
  8
0
 10
923.869756
 20
412.786814
 42
0.030509
  0
VERTEX
  8
0
 10
962.486952
 20
435.150799
 42
0.030725
  0
VERTEX
  8
0
 10
998.000000
 20
462.000140
 42
0.013261
  0
VERTEX
  8
0
 10
1003.689465
 20
467.146386
 42
0.001602
  0
VERTEX
  8
0
 10
1015.871875
 20
478.842422
 42
0.001904
  0
VERTEX
  8
0
 10
1030.254112
 20
492.845589
 42
0.001566
  0
VERTEX
  8
0
 10
1045.500000
 20
507.897174
 42
-0.003279
  0
VERTEX
  8
0
 10
1071.876093
 20
533.759306
 42
-0.015112
  0
VERTEX
  8
0
 10
1087.691603
 20
548.164921
 42
-0.024689
  0
VERTEX
  8
0
 10
1100.215206
 20
557.868276
 42
-0.024747
  0
VERTEX
  8
0
 10
1113.624798
 20
566.281680
 42
-0.034180
  0
VERTEX
  8
0
 10
1135.631415
 20
576.709746
 42
-0.024258
  0
VERTEX
  8
0
 10
1161.518503
 20
585.451944
 42
-0.021985
  0
VERTEX
  8
0
 10
1190.908581
 20
592.433066
 42
-0.016897
  0
VERTEX
  8
0
 10
1223.500000
 20
597.540885
 42
0.018425
  0
VERTEX
  8
0
 10
1249.859656
 20
601.754590
 42
0.018417
  0
VERTEX
  8
0
 10
1275.841260
 20
607.898014
 42
0.019441
  0
VERTEX
  8
0
 10
1299.445190
 20
615.404283
 42
0.032648
  0
VERTEX
  8
0
 10
1318.500000
 20
623.732511
 42
0.000000
  0
VERTEX
  8
0
 10
1322.500000
 20
625.801346
 42
0.000000
  0
VERTEX
  8
0
 10
1317.500000
 20
626.476795
 42
-0.015665
  0
VERTEX
  8
0
 10
1300.212209
 20
629.366189
 42
-0.007062
  0
VERTEX
  8
0
 10
1277.725180
 20
634.183941
 42
-0.004633
  0
VERTEX
  8
0
 10
1246.110479
 20
641.734709
 42
-0.001327
  0
VERTEX
  8
0
 10
1197.256710
 20
654.020164
 42
0.001674
  0
VERTEX
  8
0
 10
1006.215520
 20
701.921216
 42
0.003727
  0
VERTEX
  8
0
 10
860.407668
 20
736.811199
 42
0.004770
  0
VERTEX
  8
0
 10
740.905482
 20
763.268076
 42
0.006642
  0
VERTEX
  8
0
 10
633.426506
 20
784.502347
 42
0.003472
  0
VERTEX
  8
0
 10
578.389860
 20
794.223453
 42
0.006797
  0
VERTEX
  8
0
 10
534.401473
 20
801.064752
 42
0.008038
  0
VERTEX
  8
0
 10
495.624180
 20
805.922396
 42
0.008220
  0
VERTEX
  8
0
 10
457.000000
 20
809.489993
 42
0.009263
  0
VERTEX
  8
0
 10
439.065031
 20
810.515899
 42
0.003667
  0
VERTEX
  8
0
 10
414.384496
 20
811.288153
 42
0.003276
  0
VERTEX
  8
0
 10
390.377073
 20
811.705765
 42
0.016622
  0
SEQEND
  0
POLYLINE
  8
0
 66
1
 70
1
  0
VERTEX
  8
0
 10
732.000000
 20
673.500000
 42
0.000000
  0
VERTEX
  8
0
 10
732.000000
 20
612.000000
 42
0.000000
  0
VERTEX
  8
0
 10
793.500000
 20
612.000000
 42
0.000000
  0
VERTEX
  8
0
 10
855.000000
 20
612.000000
 42
0.000000
  0
VERTEX
  8
0
 10
855.000000
 20
558.500000
 42
0.000000
  0
VERTEX
  8
0
 10
855.000000
 20
505.000000
 42
0.000000
  0
VERTEX
  8
0
 10
793.500000
 20
505.000000
 42
0.000000
  0
VERTEX
  8
0
 10
732.000000
 20
505.000000
 42
0.000000
  0
VERTEX
  8
0
 10
732.000000
 20
443.491604
 42
0.000000
  0
VERTEX
  8
0
 10
732.000000
 20
381.983208
 42
0.000000
  0
VERTEX
  8
0
 10
676.250000
 20
382.241604
 42
0.000000
  0
VERTEX
  8
0
 10
620.500000
 20
382.500000
 42
0.000000
  0
VERTEX
  8
0
 10
620.500000
 20
443.750084
 42
0.000000
  0
VERTEX
  8
0
 10
620.500000
 20
505.000168
 42
0.000000
  0
VERTEX
  8
0
 10
558.750000
 20
505.000084
 42
0.000000
  0
VERTEX
  8
0
 10
497.000000
 20
505.000000
 42
0.000000
  0
VERTEX
  8
0
 10
497.000000
 20
558.500000
 42
0.000000
  0
VERTEX
  8
0
 10
497.000000
 20
612.000000
 42
0.000000
  0
VERTEX
  8
0
 10
558.500000
 20
612.000000
 42
0.000000
  0
VERTEX
  8
0
 10
620.000000
 20
612.000000
 42
0.000000
  0
VERTEX
  8
0
 10
620.000000
 20
672.833333
 42
-0.001026
  0
VERTEX
  8
0
 10
620.047972
 20
696.205436
 42
-0.001684
  0
VERTEX
  8
0
 10
620.195833
 20
715.992708
 42
-0.000162
  0
VERTEX
  8
0
 10
620.393332
 20
733.684019
 42
-0.195929
  0
VERTEX
  8
0
 10
620.666667
 20
734.333333
 42
-0.195618
  0
VERTEX
  8
0
 10
621.314519
 20
734.606508
 42
-0.000195
  0
VERTEX
  8
0
 10
637.391667
 20
734.804167
 42
-0.001848
  0
VERTEX
  8
0
 10
655.403535
 20
734.952021
 42
-0.001128
  0
VERTEX
  8
0
 10
676.666667
 20
735.000000
 42
0.000000
  0
VERTEX
  8
0
 10
732.000000
 20
735.000000
 42
0.000000
  0
SEQEND
  0
ENDSEC
  0
EOF
